# xmcd
# 
# Track frame offsets:
#     150
#     19228
#     35649
#     52835
#     59016
#     69328
#     81486
#     102583
#     119083
#     133717
#     149099
#     166820
#     178058
#     188620
#     207470
#     220294
#     234028
#     252878
#     267209
#     286486
#     293406
#     304584
#     317507
#     334269
# 
# Disc length: 4607
# 
# Revision: 6
# Processed by: cddbd v1.5.2PL0 Copyright (c) Steve Scherf et al.
# Submitted via: fre:ac v1.0.31
# 
DISCID=7111fd18
DTITLE=Johnny Cash - Bootleg Vol. 3  Live Around The World Disc 2
DYEAR=2011
DGENRE=Country
TTITLE0=Introduction
TTITLE1=A Boy Named Sue
TTITLE2=Five Feet High And Rising
TTITLE3=Pickin' Time
TTITLE4=Wreck Of The Old '97
TTITLE5=Lumberjack
TTITLE6=Jesus Was A Carpenter
TTITLE7=What Is Truth
TTITLE8=(There'll Be) Peace In The Valley (For Me)
TTITLE9=He Turned The Water Into Wine
TTITLE10=Were You There (When They Crucified My Lord)
TTITLE11=Daddy Sang Bass
TTITLE12=The Old Account
TTITLE13=Sunday Morning Comin' Down
TTITLE14=The Prisoner's Song
TTITLE15=That Silver Haired Daddy of Mine
TTITLE16=City Of New Orleans
TTITLE17=Ragged Old Flat
TTITLE18=One Piece At A Time
TTITLE19=Hey Porter
TTITLE20=There You Go
TTITLE21=Give My Love To Rose
TTITLE22=(Ghost) Rider In The Sky
TTITLE23=I'm Just An Old Chunk Of Coal
EXTD=
EXTT0=
EXTT1=
EXTT2=
EXTT3=
EXTT4=
EXTT5=
EXTT6=
EXTT7=
EXTT8=
EXTT9=
EXTT10=
EXTT11=
EXTT12=
EXTT13=
EXTT14=
EXTT15=
EXTT16=
EXTT17=
EXTT18=
EXTT19=
EXTT20=
EXTT21=
EXTT22=
EXTT23=
PLAYORDER=
